#!OML:ASF E:\Steps\Project 1\Capture day 1\Session 2\Subject.ASF
:FULLY-SPECIFIED
:DEGREES
361
root 3.70622 17.0894 8.92887 -150.861 0.277891 177.252
lowerback -21.8158 -2.61991 -3.50306
upperback 0.885813 -2.77964 0.574778
thorax 13.514 -1.60531 1.72136
lowerneck -6.29411 -1.11132 -2.29398
upperneck 21.8631 -0.370705 2.06925
head 7.77137 0.295981 1.10201
rclavicle -1.08462e-014 -3.04389e-015
rhumerus -46.0851 -12.0687 -72.0444
rradius 49.1693
rwrist -3.80986
rhand -7.00064 -49.6102
rfingers 7.12502
rthumb 18.8702 -78.7149
lclavicle -1.08462e-014 -3.04389e-015
lhumerus -33.3312 -15.437 80.3217
lradius 39.0084
lwrist 5.68961
lhand -22.8494 -13.633
lfingers 7.12502
lthumb 3.58854 16.3166
rfemur -37.888 9.14304 16.551
rtibia 22.4608
rfoot -23.3954 -6.38298
rtoes -16.6639
lfemur -34.7708 -5.93346 -25.1584
ltibia 21.6528
lfoot -15.59 0.861708
ltoes -34.0445
362
root 3.70919 17.0888 8.90117 -150.862 0.259316 177.246
lowerback -22.3014 -2.48973 -3.62318
upperback 0.291696 -2.6141 0.525462
thorax 13.0886 -1.54704 1.78209
lowerneck -3.5384 -1.01672 -1.57308
upperneck 20.583 -0.222787 1.68328
head 6.85337 0.40733 0.851837
rclavicle -6.60959e-015 3.50358e-015
rhumerus -47.5435 -12.1278 -71.9149
rradius 49.4623
rwrist -3.9567
rhand -7.02973 -49.1251
rfingers 7.12502
rthumb 18.8422 -78.2326
lclavicle -6.60959e-015 3.50358e-015
lhumerus -34.6549 -15.7213 80.4817
lradius 38.7875
lwrist 5.5662
lhand -22.5242 -13.0784
lfingers 7.12502
lthumb 3.90258 16.8657
rfemur -37.4968 9.03928 16.654
rtibia 21.9071
rfoot -23.0278 -6.60899
rtoes -17.4236
lfemur -34.7542 -6.23094 -25.0648
ltibia 21.8654
lfoot -15.7344 1.21555
ltoes -34.7873
363
root 3.7125 17.0908 8.87728 -150.792 0.256694 177.245
lowerback -22.4869 -2.61043 -3.55792
upperback 0.387264 -2.79684 0.690628
thorax 13.3241 -1.6336 1.86268
lowerneck -4.38245 -0.842053 -2.00455
upperneck 20.205 -0.0578274 1.7322
head 6.87818 0.414162 0.945485
rclavicle -1.63003e-014 3.47873e-016
rhumerus -46.7563 -11.8491 -72.2017
rradius 49.541
rwrist -4.09529
rhand -6.90037 -49.0557
rfingers 7.12502
rthumb 18.9666 -78.151
lclavicle -1.63003e-014 3.47873e-016
lhumerus -34.205 -14.6747 80.2345
lradius 38.3932
lwrist 5.38286
lhand -22.595 -13.0572
lfingers 7.12502
lthumb 3.83419 16.8881
rfemur -37.2614 9.00465 16.6923
rtibia 21.4829
rfoot -22.8179 -6.71427
rtoes -17.5804
lfemur -34.8044 -6.46843 -24.9693
ltibia 22.0181
lfoot -15.7729 1.50432
ltoes -35.4958
364
root 3.71434 17.0936 8.85527 -150.77 0.269895 177.273
lowerback -22.6343 -2.68868 -3.47764
upperback 0.396193 -2.93481 0.829321
thorax 13.4319 -1.69834 1.9219
lowerneck -4.88803 -0.737204 -2.31926
upperneck 19.7942 0.0328464 1.74957
head 6.83356 0.402499 1.00446
rclavicle 1.99779e-014 -1.49089e-015
rhumerus -46.2384 -11.7125 -72.3761
rradius 49.5729
rwrist -4.10938
rhand -6.69798 -49.3103
rfingers 7.12502
rthumb 19.1613 -78.3864
lclavicle 1.99779e-014 -1.49089e-015
lhumerus -34.0881 -13.7337 80.0804
lradius 38.1239
lwrist 5.55153
lhand -23.1713 -13.5838
lfingers 7.12502
lthumb 3.2777 16.3707
rfemur -36.9549 8.992 16.7504
rtibia 21.0113
rfoot -22.6405 -6.71983
rtoes -17.3998
lfemur -34.7779 -6.69767 -24.8442
ltibia 22.0979
lfoot -15.8723 1.63841
ltoes -35.2755
365
root 3.71702 17.0953 8.83368 -150.771 0.250546 177.334
lowerback -22.8359 -2.70747 -3.37925
upperback 0.384 -2.99412 0.915285
thorax 13.5362 -1.72439 1.93613
lowerneck -5.18053 -0.61976 -2.41235
upperneck 19.4317 0.138386 1.78127
head 6.76591 0.425908 1.03297
rclavicle -9.19379e-015 -4.17448e-015
rhumerus -45.8148 -11.8055 -72.5347
rradius 49.4351
rwrist -4.04657
rhand -6.59219 -49.5271
rfingers 7.12502
rthumb 19.263 -78.5931
lclavicle -9.19379e-015 -4.17448e-015
lhumerus -34.0775 -13.1848 79.9383
lradius 37.9042
lwrist 5.97932
lhand -23.0256 -13.7509
lfingers 7.12502
lthumb 3.41833 16.2015
rfemur -36.6541 9.00502 16.8555
rtibia 20.6074
rfoot -22.4198 -6.70008
rtoes -16.9869
lfemur -34.7893 -6.88745 -24.6878
ltibia 22.2779
lfoot -16.0529 1.62544
ltoes -34.1259
